<?xml version="1.0" encoding="UTF-8" standalone="no"?>
<svg width="175.10825mm" height="178.21753mm" viewBox="0 0 175.10825 178.21753" version="1.1" id="svg5"
     xmlns:xlink="http://www.w3.org/1999/xlink" xmlns="http://www.w3.org/2000/svg">
    <defs id="defs2">
        <linearGradient id="linearGradient980">
            <stop style="stop-color:#9fc657;stop-opacity:1;" offset="0" id="stop976"/>
            <stop style="stop-color:#d4dd68;stop-opacity:1;" offset="1" id="stop978"/>
        </linearGradient>
        <linearGradient xlink:href="#linearGradient980" id="linearGradient982" x1="117.6618" y1="98.525696"
                        x2="216.07433" y2="-52.419228" gradientUnits="userSpaceOnUse"/>
        <linearGradient xlink:href="#linearGradient980" id="linearGradient2562" gradientUnits="userSpaceOnUse"
                        x1="117.6618" y1="98.525696" x2="216.07433" y2="-52.419228"/>
    </defs>
    <g id="layer1" transform="translate(-13.538637,-47.835256)">
        <g aria-label="S" transform="rotate(30,-74.163902,-44.570055)" id="text236"
           style="fill:url(#linearGradient982);fill-opacity:1;fill-rule:evenodd;stroke:#1c1e2a;stroke-width:14;stroke-linecap:round;stroke-linejoin:round;stroke-dasharray:none;stroke-opacity:1;paint-order:stroke fill">
            <path d="m 121.40168,78.089703 q 9.87776,2.46944 22.96579,4.198048 13.33498,1.481664 25.43523,1.481664 6.1736,0 12.10026,-0.246944 6.1736,-0.246944 15.80442,-1.23472 V 36.356167 L 174.2477,34.627559 q -16.54525,-1.23472 -27.16384,-3.70416 -10.6186,-2.716384 -16.7922,-7.40832 -5.92665,-4.93888 -8.39609,-12.841088 -2.2225,-7.9022077 -2.2225,-20.0024637 0,-17.7799683 4.44499,-28.1516163 4.69194,-10.618592 15.06359,-15.310528 10.37165,-4.691936 27.41078,-4.691936 12.84109,0 24.94135,1.23472 12.10025,0.987776 24.94134,3.457216 l -3.21027,19.508576 q -10.86554,-1.975552 -21.48413,-2.716384 -10.61859,-0.987776 -23.70662,-0.987776 -7.16138,0 -11.60637,0.246944 -4.44499,0.246944 -9.87776,0.987776 v 46.425472 l 27.41078,1.728608 q 19.50858,1.23472 30.37411,5.926656 11.11248,4.444992 15.55748,14.075808 4.69193,9.630816 4.69193,26.176064 0,17.039136 -5.43277,27.16384 -5.43276,9.87776 -18.02691,14.322753 -12.3472,4.19805 -33.58438,4.19805 -13.08803,0 -25.18829,-1.48167 -12.10026,-1.23472 -24.6944,-4.444989 z"
                  id="path396"
                  style="fill:url(#linearGradient2562);fill-opacity:1;stroke:#1c1e2a;stroke-width:14;stroke-dasharray:none;stroke-opacity:1"/>
        </g>
    </g>
</svg>